<mxfile host="app.diagrams.net" modified="2023-05-01T06:32:42.416Z" agent="Mozilla/5.0 (Windows NT 10.0; Win64; x64) AppleWebKit/537.36 (KHTML, like Gecko) Chrome/112.0.0.0 Safari/537.36" etag="ImdwtkoWZZPmMWbVC2Uk" version="21.2.3" type="device">
  <diagram name="Page-1" id="o8IpC_fTmcIOQE4COAmG">
    <mxGraphModel dx="1242" dy="1742" grid="1" gridSize="10" guides="1" tooltips="1" connect="1" arrows="1" fold="1" page="1" pageScale="1" pageWidth="850" pageHeight="1100" math="0" shadow="0">
      <root>
        <mxCell id="0" />
        <mxCell id="1" parent="0" />
        <mxCell id="NV1EVVWusitZP-XCyRed-3" value="Course" style="rounded=0;whiteSpace=wrap;html=1;" parent="1" vertex="1">
          <mxGeometry x="1665.5" y="200" width="120" height="60" as="geometry" />
        </mxCell>
        <mxCell id="NV1EVVWusitZP-XCyRed-4" value="id" style="ellipse;whiteSpace=wrap;html=1;fontStyle=4" parent="1" vertex="1">
          <mxGeometry x="1570" y="-5" width="75" height="50" as="geometry" />
        </mxCell>
        <mxCell id="NV1EVVWusitZP-XCyRed-5" value="name" style="ellipse;whiteSpace=wrap;html=1;" parent="1" vertex="1">
          <mxGeometry x="1635" y="50" width="75" height="50" as="geometry" />
        </mxCell>
        <mxCell id="NV1EVVWusitZP-XCyRed-6" value="" style="endArrow=none;html=1;rounded=0;exitX=0.25;exitY=0;exitDx=0;exitDy=0;entryX=0.5;entryY=1;entryDx=0;entryDy=0;" parent="1" source="NV1EVVWusitZP-XCyRed-3" target="NV1EVVWusitZP-XCyRed-4" edge="1">
          <mxGeometry width="50" height="50" relative="1" as="geometry">
            <mxPoint x="1530" y="190" as="sourcePoint" />
            <mxPoint x="1580" y="140" as="targetPoint" />
          </mxGeometry>
        </mxCell>
        <mxCell id="NV1EVVWusitZP-XCyRed-7" value="" style="endArrow=none;html=1;rounded=0;entryX=0.5;entryY=1;entryDx=0;entryDy=0;" parent="1" source="NV1EVVWusitZP-XCyRed-3" target="NV1EVVWusitZP-XCyRed-5" edge="1">
          <mxGeometry width="50" height="50" relative="1" as="geometry">
            <mxPoint x="1740" y="190" as="sourcePoint" />
            <mxPoint x="1790" y="140" as="targetPoint" />
          </mxGeometry>
        </mxCell>
        <mxCell id="NV1EVVWusitZP-XCyRed-8" value="description" style="ellipse;whiteSpace=wrap;html=1;" parent="1" vertex="1">
          <mxGeometry x="1930" width="75" height="50" as="geometry" />
        </mxCell>
        <mxCell id="NV1EVVWusitZP-XCyRed-9" value="" style="endArrow=none;html=1;rounded=0;entryX=0.5;entryY=1;entryDx=0;entryDy=0;" parent="1" source="NV1EVVWusitZP-XCyRed-3" target="NV1EVVWusitZP-XCyRed-8" edge="1">
          <mxGeometry width="50" height="50" relative="1" as="geometry">
            <mxPoint x="1799" y="190" as="sourcePoint" />
            <mxPoint x="1865" y="130" as="targetPoint" />
          </mxGeometry>
        </mxCell>
        <mxCell id="NV1EVVWusitZP-XCyRed-14" value="logo_path" style="ellipse;whiteSpace=wrap;html=1;" parent="1" vertex="1">
          <mxGeometry x="1940" y="60" width="75" height="50" as="geometry" />
        </mxCell>
        <mxCell id="NV1EVVWusitZP-XCyRed-15" value="" style="endArrow=none;html=1;rounded=0;entryX=0.5;entryY=1;entryDx=0;entryDy=0;exitX=0.75;exitY=0;exitDx=0;exitDy=0;" parent="1" source="NV1EVVWusitZP-XCyRed-3" target="NV1EVVWusitZP-XCyRed-14" edge="1">
          <mxGeometry width="50" height="50" relative="1" as="geometry">
            <mxPoint x="1808" y="210" as="sourcePoint" />
            <mxPoint x="1940" y="140" as="targetPoint" />
          </mxGeometry>
        </mxCell>
        <mxCell id="NV1EVVWusitZP-XCyRed-16" value="image" style="ellipse;whiteSpace=wrap;html=1;" parent="1" vertex="1">
          <mxGeometry x="1840" y="20" width="75" height="50" as="geometry" />
        </mxCell>
        <mxCell id="NV1EVVWusitZP-XCyRed-17" value="" style="endArrow=none;html=1;rounded=0;entryX=0.5;entryY=1;entryDx=0;entryDy=0;exitX=0.5;exitY=0;exitDx=0;exitDy=0;" parent="1" source="NV1EVVWusitZP-XCyRed-3" target="NV1EVVWusitZP-XCyRed-16" edge="1">
          <mxGeometry width="50" height="50" relative="1" as="geometry">
            <mxPoint x="1653" y="110" as="sourcePoint" />
            <mxPoint x="1785" y="40" as="targetPoint" />
          </mxGeometry>
        </mxCell>
        <mxCell id="NV1EVVWusitZP-XCyRed-19" value="Headline" style="shape=ext;margin=3;double=1;whiteSpace=wrap;html=1;align=center;" parent="1" vertex="1">
          <mxGeometry x="2125" y="750" width="130" height="60" as="geometry" />
        </mxCell>
        <mxCell id="NV1EVVWusitZP-XCyRed-20" value="&lt;u&gt;id&lt;/u&gt;" style="ellipse;whiteSpace=wrap;html=1;" parent="1" vertex="1">
          <mxGeometry x="2022.5" y="910" width="75" height="50" as="geometry" />
        </mxCell>
        <mxCell id="NV1EVVWusitZP-XCyRed-21" value="" style="endArrow=none;html=1;rounded=0;entryX=0.605;entryY=0.039;entryDx=0;entryDy=0;entryPerimeter=0;" parent="1" source="NV1EVVWusitZP-XCyRed-19" target="NV1EVVWusitZP-XCyRed-20" edge="1">
          <mxGeometry width="50" height="50" relative="1" as="geometry">
            <mxPoint x="2045.5" y="1040" as="sourcePoint" />
            <mxPoint x="2177.5" y="970" as="targetPoint" />
          </mxGeometry>
        </mxCell>
        <mxCell id="NV1EVVWusitZP-XCyRed-24" value="icon" style="ellipse;whiteSpace=wrap;html=1;" parent="1" vertex="1">
          <mxGeometry x="2058" y="960" width="75" height="50" as="geometry" />
        </mxCell>
        <mxCell id="NV1EVVWusitZP-XCyRed-25" value="" style="endArrow=none;html=1;rounded=0;entryX=0.605;entryY=0.039;entryDx=0;entryDy=0;entryPerimeter=0;exitX=0.5;exitY=1;exitDx=0;exitDy=0;" parent="1" source="NV1EVVWusitZP-XCyRed-19" target="NV1EVVWusitZP-XCyRed-24" edge="1">
          <mxGeometry width="50" height="50" relative="1" as="geometry">
            <mxPoint x="2247.5" y="810" as="sourcePoint" />
            <mxPoint x="2262.5" y="980" as="targetPoint" />
          </mxGeometry>
        </mxCell>
        <mxCell id="NV1EVVWusitZP-XCyRed-26" value="title" style="ellipse;whiteSpace=wrap;html=1;" parent="1" vertex="1">
          <mxGeometry x="2133" y="930" width="75" height="50" as="geometry" />
        </mxCell>
        <mxCell id="NV1EVVWusitZP-XCyRed-27" value="" style="endArrow=none;html=1;rounded=0;entryX=0.605;entryY=0.039;entryDx=0;entryDy=0;entryPerimeter=0;exitX=0.646;exitY=1.003;exitDx=0;exitDy=0;exitPerimeter=0;" parent="1" source="NV1EVVWusitZP-XCyRed-19" target="NV1EVVWusitZP-XCyRed-26" edge="1">
          <mxGeometry width="50" height="50" relative="1" as="geometry">
            <mxPoint x="2332.5" y="810" as="sourcePoint" />
            <mxPoint x="2347.5" y="980" as="targetPoint" />
          </mxGeometry>
        </mxCell>
        <mxCell id="NV1EVVWusitZP-XCyRed-31" value="description" style="ellipse;whiteSpace=wrap;html=1;" parent="1" vertex="1">
          <mxGeometry x="2172.5" y="980" width="75" height="50" as="geometry" />
        </mxCell>
        <mxCell id="NV1EVVWusitZP-XCyRed-32" value="" style="endArrow=none;html=1;rounded=0;entryX=0.605;entryY=0.039;entryDx=0;entryDy=0;entryPerimeter=0;exitX=1;exitY=1;exitDx=0;exitDy=0;" parent="1" source="NV1EVVWusitZP-XCyRed-19" target="NV1EVVWusitZP-XCyRed-31" edge="1">
          <mxGeometry width="50" height="50" relative="1" as="geometry">
            <mxPoint x="2296" y="800" as="sourcePoint" />
            <mxPoint x="2432" y="970" as="targetPoint" />
          </mxGeometry>
        </mxCell>
        <mxCell id="NV1EVVWusitZP-XCyRed-34" value="" style="endArrow=none;html=1;rounded=0;entryX=0.5;entryY=0;entryDx=0;entryDy=0;exitX=0.5;exitY=1;exitDx=0;exitDy=0;" parent="1" source="NV1EVVWusitZP-XCyRed-3" target="NV1EVVWusitZP-XCyRed-37" edge="1">
          <mxGeometry relative="1" as="geometry">
            <mxPoint x="1470" y="400" as="sourcePoint" />
            <mxPoint x="1725" y="380" as="targetPoint" />
          </mxGeometry>
        </mxCell>
        <mxCell id="NV1EVVWusitZP-XCyRed-35" value="" style="endArrow=none;html=1;rounded=0;entryX=0.5;entryY=0;entryDx=0;entryDy=0;exitX=0.5;exitY=1;exitDx=0;exitDy=0;verticalAlign=middle;horizontal=1;shape=link;" parent="1" source="NV1EVVWusitZP-XCyRed-37" target="NV1EVVWusitZP-XCyRed-19" edge="1">
          <mxGeometry relative="1" as="geometry">
            <mxPoint x="2190.5" y="660" as="sourcePoint" />
            <mxPoint x="2182.5" y="760" as="targetPoint" />
          </mxGeometry>
        </mxCell>
        <mxCell id="NV1EVVWusitZP-XCyRed-37" value="Has" style="shape=rhombus;double=1;perimeter=rhombusPerimeter;whiteSpace=wrap;html=1;align=center;" parent="1" vertex="1">
          <mxGeometry x="2127.5" y="580" width="120" height="60" as="geometry" />
        </mxCell>
        <mxCell id="NV1EVVWusitZP-XCyRed-39" value="Social Network" style="shape=ext;margin=3;double=1;whiteSpace=wrap;html=1;align=center;" parent="1" vertex="1">
          <mxGeometry x="2270" y="200" width="130" height="60" as="geometry" />
        </mxCell>
        <mxCell id="NV1EVVWusitZP-XCyRed-40" value="&lt;u&gt;id&lt;/u&gt;" style="ellipse;whiteSpace=wrap;html=1;" parent="1" vertex="1">
          <mxGeometry x="2230" y="430" width="75" height="50" as="geometry" />
        </mxCell>
        <mxCell id="NV1EVVWusitZP-XCyRed-41" value="" style="endArrow=none;html=1;rounded=0;entryX=0.605;entryY=0.039;entryDx=0;entryDy=0;entryPerimeter=0;" parent="1" source="NV1EVVWusitZP-XCyRed-39" target="NV1EVVWusitZP-XCyRed-40" edge="1">
          <mxGeometry width="50" height="50" relative="1" as="geometry">
            <mxPoint x="1903" y="660" as="sourcePoint" />
            <mxPoint x="2035" y="590" as="targetPoint" />
          </mxGeometry>
        </mxCell>
        <mxCell id="NV1EVVWusitZP-XCyRed-42" value="icon" style="ellipse;whiteSpace=wrap;html=1;" parent="1" vertex="1">
          <mxGeometry x="2265.5" y="480" width="75" height="50" as="geometry" />
        </mxCell>
        <mxCell id="NV1EVVWusitZP-XCyRed-43" value="" style="endArrow=none;html=1;rounded=0;entryX=0.605;entryY=0.039;entryDx=0;entryDy=0;entryPerimeter=0;exitX=0.5;exitY=1;exitDx=0;exitDy=0;" parent="1" source="NV1EVVWusitZP-XCyRed-39" target="NV1EVVWusitZP-XCyRed-42" edge="1">
          <mxGeometry width="50" height="50" relative="1" as="geometry">
            <mxPoint x="2105" y="430" as="sourcePoint" />
            <mxPoint x="2120" y="600" as="targetPoint" />
          </mxGeometry>
        </mxCell>
        <mxCell id="NV1EVVWusitZP-XCyRed-44" value="title" style="ellipse;whiteSpace=wrap;html=1;" parent="1" vertex="1">
          <mxGeometry x="2330" y="450" width="75" height="50" as="geometry" />
        </mxCell>
        <mxCell id="NV1EVVWusitZP-XCyRed-45" value="" style="endArrow=none;html=1;rounded=0;entryX=0.605;entryY=0.039;entryDx=0;entryDy=0;entryPerimeter=0;exitX=0.646;exitY=1.003;exitDx=0;exitDy=0;exitPerimeter=0;" parent="1" source="NV1EVVWusitZP-XCyRed-39" target="NV1EVVWusitZP-XCyRed-44" edge="1">
          <mxGeometry width="50" height="50" relative="1" as="geometry">
            <mxPoint x="2190" y="430" as="sourcePoint" />
            <mxPoint x="2205" y="600" as="targetPoint" />
          </mxGeometry>
        </mxCell>
        <mxCell id="NV1EVVWusitZP-XCyRed-46" value="description" style="ellipse;whiteSpace=wrap;html=1;" parent="1" vertex="1">
          <mxGeometry x="2380" y="500" width="75" height="50" as="geometry" />
        </mxCell>
        <mxCell id="NV1EVVWusitZP-XCyRed-47" value="" style="endArrow=none;html=1;rounded=0;entryX=0.605;entryY=0.039;entryDx=0;entryDy=0;entryPerimeter=0;exitX=1;exitY=1;exitDx=0;exitDy=0;" parent="1" source="NV1EVVWusitZP-XCyRed-39" target="NV1EVVWusitZP-XCyRed-46" edge="1">
          <mxGeometry width="50" height="50" relative="1" as="geometry">
            <mxPoint x="2153.5" y="420" as="sourcePoint" />
            <mxPoint x="2289.5" y="590" as="targetPoint" />
          </mxGeometry>
        </mxCell>
        <mxCell id="NV1EVVWusitZP-XCyRed-48" value="" style="endArrow=none;html=1;rounded=0;entryX=0;entryY=0.5;entryDx=0;entryDy=0;exitX=1;exitY=0.5;exitDx=0;exitDy=0;verticalAlign=middle;horizontal=1;shape=link;" parent="1" source="NV1EVVWusitZP-XCyRed-49" target="NV1EVVWusitZP-XCyRed-39" edge="1">
          <mxGeometry relative="1" as="geometry">
            <mxPoint x="2048" y="280" as="sourcePoint" />
            <mxPoint x="2040" y="380" as="targetPoint" />
          </mxGeometry>
        </mxCell>
        <mxCell id="NV1EVVWusitZP-XCyRed-49" value="Has" style="shape=rhombus;double=1;perimeter=rhombusPerimeter;whiteSpace=wrap;html=1;align=center;" parent="1" vertex="1">
          <mxGeometry x="1985" y="200" width="120" height="60" as="geometry" />
        </mxCell>
        <mxCell id="NV1EVVWusitZP-XCyRed-53" value="link" style="ellipse;whiteSpace=wrap;html=1;" parent="1" vertex="1">
          <mxGeometry x="2430" y="420" width="75" height="50" as="geometry" />
        </mxCell>
        <mxCell id="NV1EVVWusitZP-XCyRed-54" value="" style="endArrow=none;html=1;rounded=0;entryX=0.605;entryY=0.039;entryDx=0;entryDy=0;entryPerimeter=0;exitX=1;exitY=0.5;exitDx=0;exitDy=0;" parent="1" source="NV1EVVWusitZP-XCyRed-39" target="NV1EVVWusitZP-XCyRed-53" edge="1">
          <mxGeometry width="50" height="50" relative="1" as="geometry">
            <mxPoint x="2474" y="120" as="sourcePoint" />
            <mxPoint x="2325" y="460" as="targetPoint" />
          </mxGeometry>
        </mxCell>
        <mxCell id="NV1EVVWusitZP-XCyRed-55" value="" style="endArrow=none;html=1;rounded=0;" parent="1" source="NV1EVVWusitZP-XCyRed-3" target="NV1EVVWusitZP-XCyRed-49" edge="1">
          <mxGeometry relative="1" as="geometry">
            <mxPoint x="1790" y="230" as="sourcePoint" />
            <mxPoint x="1980" y="230" as="targetPoint" />
          </mxGeometry>
        </mxCell>
        <mxCell id="NV1EVVWusitZP-XCyRed-56" value="Student" style="whiteSpace=wrap;html=1;align=center;" parent="1" vertex="1">
          <mxGeometry x="730" y="200" width="120" height="60" as="geometry" />
        </mxCell>
        <mxCell id="NV1EVVWusitZP-XCyRed-57" value="id" style="ellipse;whiteSpace=wrap;html=1;fontStyle=4" parent="1" vertex="1">
          <mxGeometry x="650" y="20" width="75" height="50" as="geometry" />
        </mxCell>
        <mxCell id="NV1EVVWusitZP-XCyRed-58" value="" style="endArrow=none;html=1;rounded=0;entryX=0.5;entryY=1;entryDx=0;entryDy=0;" parent="1" source="NV1EVVWusitZP-XCyRed-56" target="NV1EVVWusitZP-XCyRed-57" edge="1">
          <mxGeometry width="50" height="50" relative="1" as="geometry">
            <mxPoint x="771" y="170" as="sourcePoint" />
            <mxPoint x="655" y="110" as="targetPoint" />
          </mxGeometry>
        </mxCell>
        <mxCell id="NV1EVVWusitZP-XCyRed-61" value="" style="endArrow=none;html=1;rounded=0;entryX=0.5;entryY=1;entryDx=0;entryDy=0;exitX=0.5;exitY=0;exitDx=0;exitDy=0;" parent="1" source="NV1EVVWusitZP-XCyRed-56" target="NV1EVVWusitZP-XCyRed-62" edge="1">
          <mxGeometry width="50" height="50" relative="1" as="geometry">
            <mxPoint x="851" y="190" as="sourcePoint" />
            <mxPoint x="767.5" y="60" as="targetPoint" />
          </mxGeometry>
        </mxCell>
        <mxCell id="NV1EVVWusitZP-XCyRed-62" value="name" style="ellipse;whiteSpace=wrap;html=1;" parent="1" vertex="1">
          <mxGeometry x="710" y="60" width="75" height="50" as="geometry" />
        </mxCell>
        <mxCell id="NV1EVVWusitZP-XCyRed-63" value="" style="endArrow=none;html=1;rounded=0;entryX=0.5;entryY=1;entryDx=0;entryDy=0;exitX=0.75;exitY=0;exitDx=0;exitDy=0;" parent="1" source="NV1EVVWusitZP-XCyRed-56" target="NV1EVVWusitZP-XCyRed-64" edge="1">
          <mxGeometry width="50" height="50" relative="1" as="geometry">
            <mxPoint x="820" y="145" as="sourcePoint" />
            <mxPoint x="797.5" y="5" as="targetPoint" />
          </mxGeometry>
        </mxCell>
        <mxCell id="NV1EVVWusitZP-XCyRed-64" value="&lt;u&gt;STN&lt;/u&gt;" style="ellipse;whiteSpace=wrap;html=1;" parent="1" vertex="1">
          <mxGeometry x="750" y="10" width="75" height="50" as="geometry" />
        </mxCell>
        <mxCell id="NV1EVVWusitZP-XCyRed-65" value="" style="endArrow=none;html=1;rounded=0;entryX=0.5;entryY=1;entryDx=0;entryDy=0;exitX=1;exitY=0;exitDx=0;exitDy=0;" parent="1" source="NV1EVVWusitZP-XCyRed-56" target="NV1EVVWusitZP-XCyRed-66" edge="1">
          <mxGeometry width="50" height="50" relative="1" as="geometry">
            <mxPoint x="815.6800000000001" y="249.81999999999994" as="sourcePoint" />
            <mxPoint x="857.5" y="45" as="targetPoint" />
          </mxGeometry>
        </mxCell>
        <mxCell id="NV1EVVWusitZP-XCyRed-66" value="&lt;u&gt;phone&lt;/u&gt;" style="ellipse;whiteSpace=wrap;html=1;" parent="1" vertex="1">
          <mxGeometry x="800" y="60" width="75" height="50" as="geometry" />
        </mxCell>
        <mxCell id="NV1EVVWusitZP-XCyRed-67" value="" style="endArrow=none;html=1;rounded=0;entryX=0.5;entryY=1;entryDx=0;entryDy=0;exitX=1;exitY=0.5;exitDx=0;exitDy=0;" parent="1" source="NV1EVVWusitZP-XCyRed-56" target="NV1EVVWusitZP-XCyRed-68" edge="1">
          <mxGeometry width="50" height="50" relative="1" as="geometry">
            <mxPoint x="910" y="150" as="sourcePoint" />
            <mxPoint x="917.5" y="-5" as="targetPoint" />
          </mxGeometry>
        </mxCell>
        <mxCell id="NV1EVVWusitZP-XCyRed-68" value="gender" style="ellipse;whiteSpace=wrap;html=1;" parent="1" vertex="1">
          <mxGeometry x="850" width="75" height="50" as="geometry" />
        </mxCell>
        <mxCell id="NV1EVVWusitZP-XCyRed-69" value="Has" style="shape=rhombus;perimeter=rhombusPerimeter;whiteSpace=wrap;html=1;align=center;" parent="1" vertex="1">
          <mxGeometry x="1217.5" y="200" width="120" height="60" as="geometry" />
        </mxCell>
        <mxCell id="NV1EVVWusitZP-XCyRed-70" value="" style="endArrow=none;html=1;rounded=0;exitX=1;exitY=0.5;exitDx=0;exitDy=0;entryX=0;entryY=0.5;entryDx=0;entryDy=0;" parent="1" source="NV1EVVWusitZP-XCyRed-56" target="NV1EVVWusitZP-XCyRed-69" edge="1">
          <mxGeometry relative="1" as="geometry">
            <mxPoint x="1200" y="250" as="sourcePoint" />
            <mxPoint x="1360" y="250" as="targetPoint" />
          </mxGeometry>
        </mxCell>
        <mxCell id="NV1EVVWusitZP-XCyRed-72" value="M" style="edgeLabel;html=1;align=center;verticalAlign=middle;resizable=0;points=[];" parent="NV1EVVWusitZP-XCyRed-70" vertex="1" connectable="0">
          <mxGeometry x="-0.2069" y="-2" relative="1" as="geometry">
            <mxPoint x="17" y="-2" as="offset" />
          </mxGeometry>
        </mxCell>
        <mxCell id="NV1EVVWusitZP-XCyRed-71" value="N" style="endArrow=none;html=1;rounded=0;exitX=1;exitY=0.5;exitDx=0;exitDy=0;" parent="1" source="NV1EVVWusitZP-XCyRed-69" target="NV1EVVWusitZP-XCyRed-3" edge="1">
          <mxGeometry relative="1" as="geometry">
            <mxPoint x="1500" y="260" as="sourcePoint" />
            <mxPoint x="1660" y="260" as="targetPoint" />
          </mxGeometry>
        </mxCell>
        <mxCell id="NV1EVVWusitZP-XCyRed-74" value="Teacher" style="whiteSpace=wrap;html=1;align=center;" parent="1" vertex="1">
          <mxGeometry x="1667.5" y="-210" width="120" height="60" as="geometry" />
        </mxCell>
        <mxCell id="NV1EVVWusitZP-XCyRed-75" value="id" style="ellipse;whiteSpace=wrap;html=1;fontStyle=4" parent="1" vertex="1">
          <mxGeometry x="1560" y="-320" width="75" height="50" as="geometry" />
        </mxCell>
        <mxCell id="NV1EVVWusitZP-XCyRed-76" value="" style="endArrow=none;html=1;rounded=0;entryX=0.5;entryY=1;entryDx=0;entryDy=0;exitX=0.25;exitY=0;exitDx=0;exitDy=0;" parent="1" source="NV1EVVWusitZP-XCyRed-74" target="NV1EVVWusitZP-XCyRed-75" edge="1">
          <mxGeometry width="50" height="50" relative="1" as="geometry">
            <mxPoint x="1681" y="-220" as="sourcePoint" />
            <mxPoint x="1565" y="-310" as="targetPoint" />
          </mxGeometry>
        </mxCell>
        <mxCell id="NV1EVVWusitZP-XCyRed-77" value="name" style="ellipse;whiteSpace=wrap;html=1;fontStyle=0" parent="1" vertex="1">
          <mxGeometry x="1592.5" y="-370" width="75" height="50" as="geometry" />
        </mxCell>
        <mxCell id="NV1EVVWusitZP-XCyRed-78" value="" style="endArrow=none;html=1;rounded=0;entryX=0.5;entryY=1;entryDx=0;entryDy=0;" parent="1" source="NV1EVVWusitZP-XCyRed-74" target="NV1EVVWusitZP-XCyRed-77" edge="1">
          <mxGeometry width="50" height="50" relative="1" as="geometry">
            <mxPoint x="1778" y="-220" as="sourcePoint" />
            <mxPoint x="1640" y="-330" as="targetPoint" />
          </mxGeometry>
        </mxCell>
        <mxCell id="NV1EVVWusitZP-XCyRed-80" value="lastname" style="ellipse;whiteSpace=wrap;html=1;fontStyle=0" parent="1" vertex="1">
          <mxGeometry x="1670.5" y="-360" width="75" height="50" as="geometry" />
        </mxCell>
        <mxCell id="NV1EVVWusitZP-XCyRed-81" value="" style="endArrow=none;html=1;rounded=0;entryX=0.5;entryY=1;entryDx=0;entryDy=0;exitX=0.5;exitY=0;exitDx=0;exitDy=0;" parent="1" source="NV1EVVWusitZP-XCyRed-74" target="NV1EVVWusitZP-XCyRed-80" edge="1">
          <mxGeometry width="50" height="50" relative="1" as="geometry">
            <mxPoint x="1731" y="-207.49999999999977" as="sourcePoint" />
            <mxPoint x="1715" y="-352.5" as="targetPoint" />
          </mxGeometry>
        </mxCell>
        <mxCell id="NV1EVVWusitZP-XCyRed-86" value="Has" style="shape=rhombus;perimeter=rhombusPerimeter;whiteSpace=wrap;html=1;align=center;" parent="1" vertex="1">
          <mxGeometry x="1668" y="-10" width="120" height="60" as="geometry" />
        </mxCell>
        <mxCell id="NV1EVVWusitZP-XCyRed-87" value="N" style="endArrow=none;html=1;rounded=0;exitX=0.5;exitY=1;exitDx=0;exitDy=0;entryX=0.5;entryY=0;entryDx=0;entryDy=0;" parent="1" source="NV1EVVWusitZP-XCyRed-74" target="NV1EVVWusitZP-XCyRed-86" edge="1">
          <mxGeometry relative="1" as="geometry">
            <mxPoint x="1632" y="-70" as="sourcePoint" />
            <mxPoint x="1818" y="-70" as="targetPoint" />
          </mxGeometry>
        </mxCell>
        <mxCell id="NV1EVVWusitZP-XCyRed-90" value="" style="endArrow=none;html=1;rounded=0;exitX=0.5;exitY=1;exitDx=0;exitDy=0;entryX=0.5;entryY=0;entryDx=0;entryDy=0;" parent="1" source="NV1EVVWusitZP-XCyRed-86" target="NV1EVVWusitZP-XCyRed-3" edge="1">
          <mxGeometry relative="1" as="geometry">
            <mxPoint x="1700" y="90" as="sourcePoint" />
            <mxPoint x="1880" y="90" as="targetPoint" />
          </mxGeometry>
        </mxCell>
        <mxCell id="NV1EVVWusitZP-XCyRed-91" value="M" style="edgeLabel;html=1;align=center;verticalAlign=middle;resizable=0;points=[];" parent="NV1EVVWusitZP-XCyRed-90" vertex="1" connectable="0">
          <mxGeometry x="-0.2069" y="-2" relative="1" as="geometry">
            <mxPoint x="2" y="5" as="offset" />
          </mxGeometry>
        </mxCell>
        <mxCell id="NV1EVVWusitZP-XCyRed-93" value="image" style="ellipse;whiteSpace=wrap;html=1;fontStyle=0" parent="1" vertex="1">
          <mxGeometry x="1740" y="-400" width="75" height="50" as="geometry" />
        </mxCell>
        <mxCell id="NV1EVVWusitZP-XCyRed-94" value="" style="endArrow=none;html=1;rounded=0;entryX=0.5;entryY=1;entryDx=0;entryDy=0;exitX=0.75;exitY=0;exitDx=0;exitDy=0;" parent="1" source="NV1EVVWusitZP-XCyRed-74" target="NV1EVVWusitZP-XCyRed-93" edge="1">
          <mxGeometry width="50" height="50" relative="1" as="geometry">
            <mxPoint x="1940" y="-230" as="sourcePoint" />
            <mxPoint x="1840" y="-290" as="targetPoint" />
          </mxGeometry>
        </mxCell>
        <mxCell id="NV1EVVWusitZP-XCyRed-95" value="About me" style="shape=ext;margin=3;double=1;whiteSpace=wrap;html=1;align=center;" parent="1" vertex="1">
          <mxGeometry x="2125" y="-210" width="130" height="60" as="geometry" />
        </mxCell>
        <mxCell id="NV1EVVWusitZP-XCyRed-96" value="&lt;u&gt;id&lt;/u&gt;" style="ellipse;whiteSpace=wrap;html=1;" parent="1" vertex="1">
          <mxGeometry x="2080" y="30" width="75" height="50" as="geometry" />
        </mxCell>
        <mxCell id="NV1EVVWusitZP-XCyRed-97" value="" style="endArrow=none;html=1;rounded=0;entryX=0.605;entryY=0.039;entryDx=0;entryDy=0;entryPerimeter=0;" parent="1" source="NV1EVVWusitZP-XCyRed-95" target="NV1EVVWusitZP-XCyRed-96" edge="1">
          <mxGeometry width="50" height="50" relative="1" as="geometry">
            <mxPoint x="1753" y="260" as="sourcePoint" />
            <mxPoint x="1885" y="190" as="targetPoint" />
          </mxGeometry>
        </mxCell>
        <mxCell id="NV1EVVWusitZP-XCyRed-102" value="description" style="ellipse;whiteSpace=wrap;html=1;" parent="1" vertex="1">
          <mxGeometry x="2152.5" y="10" width="75" height="50" as="geometry" />
        </mxCell>
        <mxCell id="NV1EVVWusitZP-XCyRed-103" value="" style="endArrow=none;html=1;rounded=0;entryX=0.605;entryY=0.039;entryDx=0;entryDy=0;entryPerimeter=0;exitX=0.5;exitY=1;exitDx=0;exitDy=0;" parent="1" source="NV1EVVWusitZP-XCyRed-95" target="NV1EVVWusitZP-XCyRed-102" edge="1">
          <mxGeometry width="50" height="50" relative="1" as="geometry">
            <mxPoint x="2003.5" y="20" as="sourcePoint" />
            <mxPoint x="2139.5" y="190" as="targetPoint" />
          </mxGeometry>
        </mxCell>
        <mxCell id="NV1EVVWusitZP-XCyRed-104" value="link" style="ellipse;whiteSpace=wrap;html=1;" parent="1" vertex="1">
          <mxGeometry x="2220" y="-20" width="75" height="50" as="geometry" />
        </mxCell>
        <mxCell id="NV1EVVWusitZP-XCyRed-105" value="" style="endArrow=none;html=1;rounded=0;entryX=0.605;entryY=0.039;entryDx=0;entryDy=0;entryPerimeter=0;exitX=0.75;exitY=1;exitDx=0;exitDy=0;" parent="1" source="NV1EVVWusitZP-XCyRed-95" target="NV1EVVWusitZP-XCyRed-104" edge="1">
          <mxGeometry width="50" height="50" relative="1" as="geometry">
            <mxPoint x="2324" y="-280" as="sourcePoint" />
            <mxPoint x="2175" y="60" as="targetPoint" />
          </mxGeometry>
        </mxCell>
        <mxCell id="NV1EVVWusitZP-XCyRed-106" value="" style="endArrow=none;html=1;rounded=0;entryX=0;entryY=0.5;entryDx=0;entryDy=0;exitX=1;exitY=0.5;exitDx=0;exitDy=0;verticalAlign=middle;horizontal=1;shape=link;" parent="1" source="NV1EVVWusitZP-XCyRed-107" target="NV1EVVWusitZP-XCyRed-95" edge="1">
          <mxGeometry relative="1" as="geometry">
            <mxPoint x="1987.5" y="-130" as="sourcePoint" />
            <mxPoint x="2209.5" y="-180" as="targetPoint" />
          </mxGeometry>
        </mxCell>
        <mxCell id="NV1EVVWusitZP-XCyRed-107" value="Has" style="shape=rhombus;double=1;perimeter=rhombusPerimeter;whiteSpace=wrap;html=1;align=center;" parent="1" vertex="1">
          <mxGeometry x="1924.5" y="-210" width="120" height="60" as="geometry" />
        </mxCell>
        <mxCell id="NV1EVVWusitZP-XCyRed-108" value="" style="endArrow=none;html=1;rounded=0;exitX=1;exitY=0.5;exitDx=0;exitDy=0;" parent="1" source="NV1EVVWusitZP-XCyRed-74" target="NV1EVVWusitZP-XCyRed-107" edge="1">
          <mxGeometry relative="1" as="geometry">
            <mxPoint x="1725.5" y="-180" as="sourcePoint" />
            <mxPoint x="1919.5" y="-180" as="targetPoint" />
          </mxGeometry>
        </mxCell>
        <mxCell id="1kbKiuLP0SQsQwAhGyQ3-1" value="Pay" style="whiteSpace=wrap;html=1;align=center;" parent="1" vertex="1">
          <mxGeometry x="1227.5" y="800" width="120" height="60" as="geometry" />
        </mxCell>
        <mxCell id="1kbKiuLP0SQsQwAhGyQ3-2" value="id" style="ellipse;whiteSpace=wrap;html=1;fontStyle=4" parent="1" vertex="1">
          <mxGeometry x="990" y="920" width="75" height="50" as="geometry" />
        </mxCell>
        <mxCell id="1kbKiuLP0SQsQwAhGyQ3-3" value="" style="endArrow=none;html=1;rounded=0;entryX=1;entryY=0;entryDx=0;entryDy=0;" parent="1" source="1kbKiuLP0SQsQwAhGyQ3-1" target="1kbKiuLP0SQsQwAhGyQ3-2" edge="1">
          <mxGeometry width="50" height="50" relative="1" as="geometry">
            <mxPoint x="1371" y="835" as="sourcePoint" />
            <mxPoint x="1255" y="775" as="targetPoint" />
          </mxGeometry>
        </mxCell>
        <mxCell id="1kbKiuLP0SQsQwAhGyQ3-4" value="" style="endArrow=none;html=1;rounded=0;entryX=0.5;entryY=1;entryDx=0;entryDy=0;exitX=0.416;exitY=0.99;exitDx=0;exitDy=0;exitPerimeter=0;" parent="1" source="1kbKiuLP0SQsQwAhGyQ3-1" target="1kbKiuLP0SQsQwAhGyQ3-5" edge="1">
          <mxGeometry width="50" height="50" relative="1" as="geometry">
            <mxPoint x="1451" y="855" as="sourcePoint" />
            <mxPoint x="1367.5" y="725" as="targetPoint" />
          </mxGeometry>
        </mxCell>
        <mxCell id="1kbKiuLP0SQsQwAhGyQ3-5" value="amount" style="ellipse;whiteSpace=wrap;html=1;" parent="1" vertex="1">
          <mxGeometry x="930" y="960" width="75" height="55" as="geometry" />
        </mxCell>
        <mxCell id="1kbKiuLP0SQsQwAhGyQ3-6" value="" style="endArrow=none;html=1;rounded=0;entryX=0.5;entryY=1;entryDx=0;entryDy=0;exitX=0.625;exitY=1.004;exitDx=0;exitDy=0;exitPerimeter=0;" parent="1" source="1kbKiuLP0SQsQwAhGyQ3-1" target="1kbKiuLP0SQsQwAhGyQ3-7" edge="1">
          <mxGeometry width="50" height="50" relative="1" as="geometry">
            <mxPoint x="1420" y="810" as="sourcePoint" />
            <mxPoint x="1397.5" y="670" as="targetPoint" />
          </mxGeometry>
        </mxCell>
        <mxCell id="1kbKiuLP0SQsQwAhGyQ3-7" value="trans_id" style="ellipse;whiteSpace=wrap;html=1;" parent="1" vertex="1">
          <mxGeometry x="990" y="1010" width="75" height="50" as="geometry" />
        </mxCell>
        <mxCell id="1kbKiuLP0SQsQwAhGyQ3-16" value="N" style="endArrow=none;html=1;rounded=0;exitX=0.5;exitY=1;exitDx=0;exitDy=0;entryX=0.5;entryY=0;entryDx=0;entryDy=0;" parent="1" source="NV1EVVWusitZP-XCyRed-69" target="1kbKiuLP0SQsQwAhGyQ3-1" edge="1">
          <mxGeometry relative="1" as="geometry">
            <mxPoint x="1347.5" y="240" as="sourcePoint" />
            <mxPoint x="1533.5" y="240" as="targetPoint" />
          </mxGeometry>
        </mxCell>
        <mxCell id="1kbKiuLP0SQsQwAhGyQ3-17" value="amount" style="ellipse;whiteSpace=wrap;html=1;" parent="1" vertex="1">
          <mxGeometry x="1980" y="120" width="75" height="50" as="geometry" />
        </mxCell>
        <mxCell id="1kbKiuLP0SQsQwAhGyQ3-18" value="" style="endArrow=none;html=1;rounded=0;entryX=0;entryY=1;entryDx=0;entryDy=0;exitX=1;exitY=0.25;exitDx=0;exitDy=0;" parent="1" source="NV1EVVWusitZP-XCyRed-3" target="1kbKiuLP0SQsQwAhGyQ3-17" edge="1">
          <mxGeometry width="50" height="50" relative="1" as="geometry">
            <mxPoint x="1766" y="210" as="sourcePoint" />
            <mxPoint x="1988" y="120" as="targetPoint" />
          </mxGeometry>
        </mxCell>
        <mxCell id="W5H2JrDGfuD1_yQuMxwV-1" value="Discount Code" style="whiteSpace=wrap;html=1;align=center;" vertex="1" parent="1">
          <mxGeometry x="1227.5" y="1280" width="120" height="60" as="geometry" />
        </mxCell>
        <mxCell id="W5H2JrDGfuD1_yQuMxwV-4" value="Use" style="shape=rhombus;perimeter=rhombusPerimeter;whiteSpace=wrap;html=1;align=center;" vertex="1" parent="1">
          <mxGeometry x="1227.5" y="1040" width="120" height="60" as="geometry" />
        </mxCell>
        <mxCell id="W5H2JrDGfuD1_yQuMxwV-5" value="N" style="endArrow=none;html=1;rounded=0;entryX=0.5;entryY=0;entryDx=0;entryDy=0;exitX=0.5;exitY=1;exitDx=0;exitDy=0;" edge="1" parent="1" source="1kbKiuLP0SQsQwAhGyQ3-1" target="W5H2JrDGfuD1_yQuMxwV-4">
          <mxGeometry width="50" height="50" relative="1" as="geometry">
            <mxPoint x="1313" y="870" as="sourcePoint" />
            <mxPoint x="1038" y="1070" as="targetPoint" />
          </mxGeometry>
        </mxCell>
        <mxCell id="W5H2JrDGfuD1_yQuMxwV-6" value="" style="endArrow=none;html=1;rounded=0;entryX=0.5;entryY=0;entryDx=0;entryDy=0;exitX=0.5;exitY=1;exitDx=0;exitDy=0;" edge="1" parent="1" source="W5H2JrDGfuD1_yQuMxwV-4" target="W5H2JrDGfuD1_yQuMxwV-1">
          <mxGeometry width="50" height="50" relative="1" as="geometry">
            <mxPoint x="1274" y="1160" as="sourcePoint" />
            <mxPoint x="1274" y="1340" as="targetPoint" />
          </mxGeometry>
        </mxCell>
        <mxCell id="W5H2JrDGfuD1_yQuMxwV-9" value="1" style="edgeLabel;html=1;align=center;verticalAlign=middle;resizable=0;points=[];" vertex="1" connectable="0" parent="W5H2JrDGfuD1_yQuMxwV-6">
          <mxGeometry x="0.0741" y="1" relative="1" as="geometry">
            <mxPoint as="offset" />
          </mxGeometry>
        </mxCell>
        <mxCell id="W5H2JrDGfuD1_yQuMxwV-10" value="Has" style="shape=rhombus;perimeter=rhombusPerimeter;whiteSpace=wrap;html=1;align=center;" vertex="1" parent="1">
          <mxGeometry x="1670.5" y="1280" width="120" height="60" as="geometry" />
        </mxCell>
        <mxCell id="W5H2JrDGfuD1_yQuMxwV-11" value="" style="endArrow=none;html=1;rounded=0;entryX=0;entryY=0.5;entryDx=0;entryDy=0;exitX=1;exitY=0.5;exitDx=0;exitDy=0;" edge="1" parent="1" source="W5H2JrDGfuD1_yQuMxwV-1" target="W5H2JrDGfuD1_yQuMxwV-10">
          <mxGeometry width="50" height="50" relative="1" as="geometry">
            <mxPoint x="1500" y="1209" as="sourcePoint" />
            <mxPoint x="1500" y="1389" as="targetPoint" />
          </mxGeometry>
        </mxCell>
        <mxCell id="W5H2JrDGfuD1_yQuMxwV-12" value="M" style="edgeLabel;html=1;align=center;verticalAlign=middle;resizable=0;points=[];" vertex="1" connectable="0" parent="W5H2JrDGfuD1_yQuMxwV-11">
          <mxGeometry x="0.0741" y="1" relative="1" as="geometry">
            <mxPoint as="offset" />
          </mxGeometry>
        </mxCell>
        <mxCell id="W5H2JrDGfuD1_yQuMxwV-13" value="" style="endArrow=none;html=1;rounded=0;entryX=0.5;entryY=0;entryDx=0;entryDy=0;exitX=0.5;exitY=1;exitDx=0;exitDy=0;" edge="1" parent="1" source="NV1EVVWusitZP-XCyRed-3" target="W5H2JrDGfuD1_yQuMxwV-10">
          <mxGeometry width="50" height="50" relative="1" as="geometry">
            <mxPoint x="1720" y="700" as="sourcePoint" />
            <mxPoint x="1803" y="1180" as="targetPoint" />
          </mxGeometry>
        </mxCell>
        <mxCell id="W5H2JrDGfuD1_yQuMxwV-14" value="N" style="edgeLabel;html=1;align=center;verticalAlign=middle;resizable=0;points=[];" vertex="1" connectable="0" parent="W5H2JrDGfuD1_yQuMxwV-13">
          <mxGeometry x="0.0741" y="1" relative="1" as="geometry">
            <mxPoint as="offset" />
          </mxGeometry>
        </mxCell>
      </root>
    </mxGraphModel>
  </diagram>
</mxfile>
